<?xml version="1.0" encoding="utf-8"?>
<!-- Generator: Adobe Illustrator 27.5.0, SVG Export Plug-In . SVG Version: 6.00 Build 0)  -->
<svg version="1.1" xmlns="http://www.w3.org/2000/svg" xmlns:xlink="http://www.w3.org/1999/xlink" x="0px" y="0px"
	 viewBox="0 0 30 30" style="enable-background:new 0 0 30 30;" xml:space="preserve" width="2.5em" height="2.5em">
<g>
	<path class="st19" d="M3.56,24.6c-0.36,0-0.72-0.09-1.05-0.27c-0.68-0.38-1.11-1.1-1.11-1.89V8.06c0-0.78,0.42-1.51,1.11-1.89
		C3.2,5.79,4.04,5.81,4.7,6.22l11.63,7.19l0,0c0.64,0.4,1.02,1.08,1.02,1.84c0,0.75-0.38,1.44-1.02,1.84L4.7,24.28
		C4.35,24.5,3.96,24.6,3.56,24.6z M3.59,8.02L3.52,22.45l11.7-7.15v-0.08L3.59,8.02
M14.81,24.6c-0.36,0-0.72-0.09-1.05-0.27c-0.68-0.38-1.11-1.1-1.11-1.89v-0.96c0-0.58,0.47-1.06,1.06-1.06
		s1.06,0.47,1.06,1.06v0.96l11.7-7.15L14.83,8.02l-0.07,1c0,0.58-0.47,1.06-1.06,1.06s-1.06-0.47-1.06-1.06V8.06
		c0-0.78,0.42-1.51,1.11-1.89c0.69-0.38,1.52-0.36,2.19,0.05l11.63,7.19c0.64,0.4,1.02,1.08,1.02,1.84s-0.38,1.44-1.02,1.84
		l-11.63,7.19C15.59,24.5,15.2,24.6,14.81,24.6z" fill="#888888"/>
</g>
</svg>
